<svg width="142" height="32" viewBox="0 0 142 32" fill="none" xmlns="http://www.w3.org/2000/svg">
<path d="M-0.000183105 26.5732C5.87416 16.7721 13.0457 11.2962 20.0975 10.2949C11.63 15.9484 9.27174 24.2209 11.1821 30.7136H25.7543C27.6096 30.7136 29.1136 29.2096 29.1136 27.3543V4.95913C29.1136 3.10385 27.6096 1.59985 25.7543 1.59985L3.3591 1.59985C1.50382 1.59985 -0.000183105 3.10386 -0.000183105 4.95913V26.5732Z" fill="url(#paint0_linear_1_1328)"/>
<path d="M47.7433 9.13133C51.8505 9.13133 54.2581 11.1141 54.4848 13.9467H58.507C58.2237 9.30128 54.1165 6.10049 47.7433 6.10049C41.5116 6.04384 36.3847 9.78282 36.4697 16.7226C36.3847 23.6624 41.5116 27.4013 47.7433 27.3447C54.1448 27.3447 58.4503 24.1439 58.5636 19.0736H54.5131C54.3715 22.2744 51.9354 24.3139 47.7433 24.3139C43.5794 24.3139 40.2936 21.7645 40.2936 16.7226C40.2936 11.6806 43.5794 9.13133 47.7433 9.13133Z" fill="white"/>
<path d="M77.8915 19.2152C77.8915 14.1166 74.5207 11.1141 68.9689 11.1141C63.4171 11.1141 60.0463 14.1166 60.0463 19.2152C60.0463 24.3139 63.4171 27.3164 68.9689 27.3164C74.5207 27.3164 77.8915 24.3139 77.8915 19.2152ZM74.3224 19.2152C74.3224 22.6426 72.3397 24.4838 68.9689 24.4838C65.5982 24.4838 63.6154 22.6426 63.6154 19.2152C63.6154 15.7878 65.5982 13.9467 68.9689 13.9467C72.3397 13.9467 74.3224 15.7878 74.3224 19.2152Z" fill="white"/>
<path d="M83.1422 11.5957H79.7714V26.8348H83.2271V18.3088C83.2271 15.363 85.5215 14.06 87.7026 14.06C90.3086 14.06 91.6115 15.2213 91.6115 17.5157V26.8348H95.0673V18.3088C95.0673 15.363 97.3616 14.06 99.5427 14.06C102.149 14.06 103.452 15.2213 103.452 17.5157V26.8348H106.907V16.5243C106.907 12.9836 104.358 11.2274 100.732 11.2274C98.0981 11.2274 95.8037 11.9922 94.4724 13.6634C93.481 12.0489 91.4416 11.2274 88.9206 11.2274C86.5412 11.2274 84.5018 11.9922 83.2555 13.6068H83.1422V11.5957Z" fill="white"/>
<path d="M126.477 20.0933C126.505 19.7534 126.534 19.4702 126.534 19.2152C126.534 14.145 123.163 11.1141 117.809 11.1141C112.456 11.1141 109.085 14.145 109.085 19.2152C109.085 24.3139 112.428 27.3164 117.979 27.3164C123.475 27.3164 125.967 24.7954 126.364 22.0478H122.54C122.285 23.4074 120.812 24.5971 117.979 24.5971C114.807 24.5971 112.881 23.0675 112.626 20.0933H126.477ZM112.767 17.4591C113.306 15.0797 115.118 13.8334 117.809 13.8334C120.5 13.8334 122.313 15.0797 122.851 17.4591H112.767Z" fill="white"/>
<path d="M137.544 23.9173C136.977 24.0306 135.844 24.1439 135.164 24.1439C133.89 24.1439 133.266 23.6624 133.266 22.416V14.0883H137.6V11.5957H133.266V7.37514H129.811V11.5957H127.091V14.0883H129.811V22.9542C129.811 25.9851 131.085 27.0898 134.824 27.0898C135.731 27.0898 136.892 26.9765 137.544 26.8348V23.9173Z" fill="white"/>
<defs>
<linearGradient id="paint0_linear_1_1328" x1="37.922" y1="-13.6923" x2="-22.2064" y2="15.8379" gradientUnits="userSpaceOnUse">
<stop stop-color="#E7F1FF"/>
<stop offset="0.248163" stop-color="#F05596"/>
<stop offset="0.612854" stop-color="#558DF9"/>
<stop offset="0.950458" stop-color="#31BCFF"/>
</linearGradient>
</defs>
</svg>
